<?xml version="1.0" encoding="utf-8" ?><svg xmlns="http://www.w3.org/2000/svg" xmlns:xlink="http://www.w3.org/1999/xlink" width="1048" height="1048" viewBox="0 0 1048 1048"><path d="M178.661 0L868.675 0L869.277 0.150317C883.574 3.62654 893.315 4.20694 908.498 8.92465C954.159 23.3994 993.06 53.8727 1018.05 94.7405C1030.37 114.912 1039.09 137.072 1043.82 160.231C1044.92 165.529 1046.88 180.685 1048 184.315L1048 861.98C1044.96 876.093 1044.58 886.225 1040.36 901.232C1026.83 948.39 996.77 989.097 955.677 1015.9C934.939 1029.24 911.943 1038.7 887.816 1043.8C880.358 1045.4 870.915 1046.19 864.119 1048L183.319 1048C176.404 1046.14 165.462 1044.83 157.951 1043.23C136.215 1038.55 115.441 1030.19 96.5232 1018.5C53.0265 991.57 19.8506 948.299 6.9243 898.642C3.86906 886.905 2.75053 875.191 0 863.569L0 182.832C1.98379 176.038 3.0671 164.648 4.69913 156.942C9.49684 134.235 18.328 112.572 30.7734 92.9823C55.872 53.4619 91.8037 25.1302 136.327 9.80144C150.438 4.94337 164.352 3.20328 178.661 0Z"/><g transform="translate(167.68,167.68) scale(0.68)"><path fill="#E8E8E7" d="M858.674 551.87C874.9 551.687 889.515 550.952 901.566 563.149C911.55 573.254 912.391 583.671 912.445 597.166L912.386 718.639L912.404 758.566C912.406 774.269 912.958 790.898 909.236 806.204C904.318 825.632 894.166 843.339 879.886 857.399C846.844 890.338 814.449 889.228 771.157 888.973C758.387 888.931 745.618 888.959 732.849 889.059L568.775 889.287L513.123 889.254C529.159 866.842 546.487 844.529 563.03 822.387L659.863 692.763L715.384 618.411C731.784 596.069 747.479 573.687 765.006 552.157C795.7 552.159 828.114 552.673 858.674 551.87Z"/><path fill="#E8E8E7" d="M195.643 552.271C207.698 551.775 221.932 552.082 234.161 552.067L306.773 552.057L522.359 552.171C504.418 577.563 484.554 603.137 465.87 628.136L364.557 763.766L270.944 888.957C247.175 888.54 227.564 882.213 208.181 868.519C184.524 851.595 168.476 826.042 163.505 797.383C161.285 783.973 161.883 763.817 161.887 750.089L161.839 685.583L161.785 624.864C161.697 593.959 155.739 558.72 195.643 552.271Z"/><path fill="#E8E8E7" d="M300.354 270.808C304.045 272.418 314.869 280.818 318.518 283.547C331.096 292.956 343.427 302.893 355.843 312.524L467.294 397.924C480.534 408.06 493.873 418.073 506.787 428.624C511.157 432.194 515.622 435.623 520.279 438.809C496.813 444.543 472.137 452.31 448.684 458.945L321.754 494.567C296.209 501.548 270.712 508.7 245.264 516.023C230.02 520.388 212.828 526.254 197.191 528.065C180.569 529.989 161.556 515.006 158.472 498.71C148.373 445.346 117.987 396.68 149.651 344.289C174.224 303.63 200.896 299.09 242.925 287.127L300.354 270.808Z"/><path fill="#E8E8E7" d="M754.054 143.993C771.331 141.555 799.947 150.201 815.037 159.18C850.389 180.216 858.479 208.442 868.373 245.237L879.618 286.897C883.565 302.065 885.601 313.15 877.198 327.184C874.401 331.856 870.052 337.159 865.171 339.554C849.82 347.086 829.982 351.548 813.418 356.106C792.776 361.785 772.024 367.691 751.418 373.06C732.965 359.941 714.725 346.525 696.705 332.816L525.392 206.139C543.199 201.559 560.94 196.029 578.648 190.967L673.834 163.93C698.829 156.817 728.795 146.772 754.054 143.993Z"/><path fill="#F1615A" d="M571.722 552.073C619.388 552.344 667.055 552.357 714.721 552.111C697.247 577.638 675.492 605.053 656.877 630.22L537.679 791.178L496.256 847.078C490.607 854.797 468.614 886.026 463.001 890.32C444.292 889.718 424.075 890.111 405.323 890.229C376.614 890.459 347.903 890.5 319.194 890.352C333.165 869.668 351.236 847.175 366.343 826.969L451.471 712.721L527.905 610.478C541.712 591.919 556.977 569.583 571.722 552.073Z"/><path fill="#F1615A" d="M475.673 220.089C478.483 220.01 502.648 238.472 506.945 241.625L559.256 280.07C607.55 315.592 656.755 351.316 704.564 387.39C689.087 392.091 673.262 396.269 657.705 400.744C631.243 408.489 604.714 416.001 578.121 423.279L571.91 424.907C543.759 404.793 514.712 381.967 486.982 360.963L348.831 256.659C363.823 251.124 382.817 246.447 398.461 242.001L475.673 220.089Z"/></g></svg>